<?xml version="1.0" standalone="no"?>
<svg xmlns:xlink="http://www.w3.org/1999/xlink" id="wave" style="transform:rotate(0deg); transition: 0.3s" viewBox="0 0 1440 490" version="1.1" xmlns="http://www.w3.org/2000/svg"><defs><linearGradient id="sw-gradient-0" x1="0" x2="0" y1="1" y2="0"><stop stop-color="rgba(145.018, 255, 213.393, 1)" offset="0%"/><stop stop-color="rgba(239, 255, 250, 1)" offset="100%"/></linearGradient></defs><path style="transform:translate(0, 0px); opacity:1" fill="url(#sw-gradient-0)" d="M0,98L80,147C160,196,320,294,480,318.5C640,343,800,294,960,245C1120,196,1280,147,1440,179.7C1600,212,1760,327,1920,375.7C2080,425,2240,408,2400,400.2C2560,392,2720,392,2880,400.2C3040,408,3200,425,3360,359.3C3520,294,3680,147,3840,106.2C4000,65,4160,131,4320,138.8C4480,147,4640,98,4800,98C4960,98,5120,147,5280,147C5440,147,5600,98,5760,106.2C5920,114,6080,180,6240,228.7C6400,278,6560,310,6720,269.5C6880,229,7040,114,7200,130.7C7360,147,7520,294,7680,294C7840,294,8000,147,8160,81.7C8320,16,8480,33,8640,57.2C8800,82,8960,114,9120,155.2C9280,196,9440,245,9600,228.7C9760,212,9920,131,10080,114.3C10240,98,10400,147,10560,204.2C10720,261,10880,327,11040,351.2C11200,376,11360,359,11440,351.2L11520,343L11520,490L11440,490C11360,490,11200,490,11040,490C10880,490,10720,490,10560,490C10400,490,10240,490,10080,490C9920,490,9760,490,9600,490C9440,490,9280,490,9120,490C8960,490,8800,490,8640,490C8480,490,8320,490,8160,490C8000,490,7840,490,7680,490C7520,490,7360,490,7200,490C7040,490,6880,490,6720,490C6560,490,6400,490,6240,490C6080,490,5920,490,5760,490C5600,490,5440,490,5280,490C5120,490,4960,490,4800,490C4640,490,4480,490,4320,490C4160,490,4000,490,3840,490C3680,490,3520,490,3360,490C3200,490,3040,490,2880,490C2720,490,2560,490,2400,490C2240,490,2080,490,1920,490C1760,490,1600,490,1440,490C1280,490,1120,490,960,490C800,490,640,490,480,490C320,490,160,490,80,490L0,490Z"/></svg>