<?xml version="1.0" standalone="no"?>
<svg xmlns:xlink="http://www.w3.org/1999/xlink" id="wave" style="transform:rotate(0deg); transition: 0.3s" viewBox="0 0 1440 490" version="1.1" xmlns="http://www.w3.org/2000/svg"><defs><linearGradient id="sw-gradient-0" x1="0" x2="0" y1="1" y2="0"><stop stop-color="rgba(76.04, 241.695, 198.784, 1)" offset="0%"/><stop stop-color="rgba(31.414, 200.713, 156.858, 1)" offset="100%"/></linearGradient></defs><path style="transform:translate(0, 0px); opacity:1" fill="url(#sw-gradient-0)" d="M0,147L80,179.7C160,212,320,278,480,253.2C640,229,800,114,960,89.8C1120,65,1280,131,1440,147C1600,163,1760,131,1920,171.5C2080,212,2240,327,2400,310.3C2560,294,2720,147,2880,114.3C3040,82,3200,163,3360,179.7C3520,196,3680,147,3840,155.2C4000,163,4160,229,4320,261.3C4480,294,4640,294,4800,269.5C4960,245,5120,196,5280,212.3C5440,229,5600,310,5760,318.5C5920,327,6080,261,6240,236.8C6400,212,6560,229,6720,245C6880,261,7040,278,7200,310.3C7360,343,7520,392,7680,375.7C7840,359,8000,278,8160,277.7C8320,278,8480,359,8640,351.2C8800,343,8960,245,9120,212.3C9280,180,9440,212,9600,261.3C9760,310,9920,376,10080,392C10240,408,10400,376,10560,310.3C10720,245,10880,147,11040,163.3C11200,180,11360,310,11440,375.7L11520,441L11520,490L11440,490C11360,490,11200,490,11040,490C10880,490,10720,490,10560,490C10400,490,10240,490,10080,490C9920,490,9760,490,9600,490C9440,490,9280,490,9120,490C8960,490,8800,490,8640,490C8480,490,8320,490,8160,490C8000,490,7840,490,7680,490C7520,490,7360,490,7200,490C7040,490,6880,490,6720,490C6560,490,6400,490,6240,490C6080,490,5920,490,5760,490C5600,490,5440,490,5280,490C5120,490,4960,490,4800,490C4640,490,4480,490,4320,490C4160,490,4000,490,3840,490C3680,490,3520,490,3360,490C3200,490,3040,490,2880,490C2720,490,2560,490,2400,490C2240,490,2080,490,1920,490C1760,490,1600,490,1440,490C1280,490,1120,490,960,490C800,490,640,490,480,490C320,490,160,490,80,490L0,490Z"/></svg>